:FULLY-SPECIFIED
:FORCE-ALL-JOINTS-BE-3DOF
:DEGREES
544
root 8.22154 13.9598 -3.5331 -180.751 47.2333 -183.102
lfemur -33.5889 -5.77875 -16.3795
ltibia 88.8588 0 0
lfoot -39.086 -10.4612 0
ltoes -5.76325 0 0
rfemur -48.8489 -7.86197 -3.40438
rtibia 64.1971 0 0
rfoot -10.5378 1.17644 0
rtoes -39.4991 0 0
lowerback 13.2016 1.10153 1.46089
upperback 7.02393 2.61058 7.10189
thorax -0.279948 1.59064 6.30035
lowerneck -2.20587 -16.0012 -6.08544
upperneck 9.21187 -21.7287 8.67057
head 4.74775 -10.4893 2.25624
lclavicle 2.94202e-14 1.1132e-14 0
lhumerus -45.3847 -12.4906 104.204
lradius 56.6106 0 0
lwrist 30.6817 0 0
lhand -24.8487 -2.81073 0
lfingers 7.12502 0 0
lthumb 1.65772 27.1625 0
rclavicle 2.94202e-14 1.1132e-14 0
rhumerus 5.21335 17.9138 -90.466
rradius 135.821 0 0
rwrist -46.3929 0 0
rhand -30.5679 -24.1697 0
rfingers 7.12502 0 0
rthumb -3.8658 -774.111 0
545
root 8.26369 13.9475 -3.50405 -180.717 46.9422 -183.021
lfemur -33.6091 -5.81616 -15.9186
ltibia 88.8873 0 0
lfoot -39.2617 -11.4662 0
ltoes -5.01125 0 0
rfemur -48.9362 -7.95547 -3.21133
rtibia 64.6587 0 0
rfoot -10.6139 0.857305 0
rtoes -39.3577 0 0
lowerback 13.1265 0.928509 1.53099
upperback 7.00602 2.3776 6.99862
thorax -0.228359 1.47408 6.18301
lowerneck -2.07544 -15.875 -5.97948
upperneck 8.86044 -21.5575 8.71886
head 4.59943 -10.4193 2.29926
lclavicle 5.3504e-14 9.47099e-15 0
lhumerus -45.6024 -12.0361 103.796
lradius 56.1262 0 0
lwrist 30.9982 0 0
lhand -24.7786 -2.75282 0
lfingers 7.12502 0 0
lthumb 1.72535 27.2199 0
rclavicle 5.3504e-14 9.47099e-15 0
rhumerus 5.51714 18.5601 -90.0882
rradius 135.438 0 0
rwrist -45.8353 0 0
rhand -30.1136 -23.7085 0
rfingers 7.12502 0 0
rthumb -3.4271 -773.657 0
546
root 8.30449 13.9356 -3.47593 -180.684 46.6605 -182.942
lfemur -33.6286 -5.85237 -15.4724
ltibia 88.9149 0 0
lfoot -39.4317 -12.4393 0
ltoes -4.28324 0 0
rfemur -49.0207 -8.04598 -3.02444
rtibia 65.1056 0 0
rfoot -10.6877 0.548356 0
rtoes -39.2208 0 0
lowerback 13.0539 0.761008 1.59886
upperback 6.98869 2.15204 6.89865
thorax -0.178417 1.36123 6.06941
lowerneck -1.94918 -15.7529 -5.8769
upperneck 8.52022 -21.3918 8.7656
head 4.45584 -10.3514 2.34092
lclavicle 7.68192e-14 7.86304e-15 0
lhumerus -45.8131 -11.5961 103.401
lradius 55.6572 0 0
lwrist 31.3047 0 0
lhand -24.7108 -2.69676 0
lfingers 7.12502 0 0
lthumb 1.79082 27.2754 0
rclavicle 7.68192e-14 7.86304e-15 0
rhumerus 5.81124 19.1858 -89.7226
rradius 135.067 0 0
rwrist -45.2956 0 0
rhand -29.6738 -23.2621 0
rfingers 7.12502 0 0
rthumb -3.0024 -773.219 0
547
root 8.3426 13.9245 -3.44966 -180.653 46.3973 -182.868
lfemur -33.6469 -5.88619 -15.0556
ltibia 88.9407 0 0
lfoot -39.5906 -13.3481 0
ltoes -3.60323 0 0
rfemur -49.0997 -8.13052 -2.84987
rtibia 65.5231 0 0
rfoot -10.7566 0.259778 0
rtoes -39.0929 0 0
lowerback 12.986 0.604552 1.66225
upperback 6.9725 1.94136 6.80527
thorax -0.131767 1.25582 5.96331
lowerneck -1.83125 -15.6388 -5.78109
upperneck 8.20244 -21.237 8.80926
head 4.32172 -10.2881 2.37983
lclavicle 9.85972e-14 6.36111e-15 0
lhumerus -46.01 -11.1851 103.032
lradius 55.2192 0 0
lwrist 31.5909 0 0
lhand -24.6475 -2.6444 0
lfingers 7.12502 0 0
lthumb 1.85197 27.3273 0
rclavicle 9.85972e-14 6.36111e-15 0
rhumerus 6.08594 19.7702 -89.381
rradius 134.72 0 0
rwrist -44.7914 0 0
rhand -29.263 -22.8451 0
rfingers 7.12502 0 0
rthumb -2.6057 -772.809 0
548
root 8.34778 13.9771 -3.43665 -180.581 46.5113 -182.856
lfemur -33.3596 -5.5981 -14.9671
ltibia 88.1908 0 0
lfoot -39.5399 -13.4883 0
ltoes -3.58658 0 0
rfemur -48.8867 -7.61815 -2.77558
rtibia 64.9029 0 0
rfoot -10.2286 -0.0524613 0
rtoes -39.0001 0 0
lowerback 12.8128 0.470967 1.51558
upperback 6.84505 1.7142 6.65749
thorax -0.151045 1.12964 5.91733
lowerneck -1.81411 -15.5735 -5.74723
upperneck 8.14035 -21.1473 8.75071
head 4.28356 -10.2494 2.37151
lclavicle 9.12127e-14 2.23817e-14 0
lhumerus -46.0538 -10.91 102.804
lradius 54.8965 0 0
lwrist 31.0391 0 0
lhand -24.6594 -2.79774 0
lfingers 7.12502 0 0
lthumb 1.84044 27.1741 0
rclavicle 9.12127e-14 2.23817e-14 0
rhumerus 7.02136 19.6654 -88.6703
rradius 134.754 0 0
rwrist -44.6142 0 0
rhand -28.9745 -22.5526 0
rfingers 7.12502 0 0
rthumb -2.3271 -772.519 0
549
root 8.35333 14.0334 -3.42273 -180.504 46.6333 -182.844
lfemur -33.052 -5.28968 -14.8724
ltibia 87.388 0 0
lfoot -39.4856 -13.6384 0
ltoes -3.56875 0 0
rfemur -48.6586 -7.06962 -2.69605
rtibia 64.239 0 0
rfoot -9.66324 -0.386741 0
rtoes -38.9008 0 0
lowerback 12.6273 0.327952 1.35856
upperback 6.7086 1.471 6.49928
thorax -0.171684 0.994561 5.86811
lowerneck -1.79576 -15.5035 -5.71099
upperneck 8.07387 -21.0512 8.68803
head 4.24271 -10.2079 2.3626
lclavicle 8.3307e-14 3.95332e-14 0
lhumerus -46.1007 -10.6155 102.559
lradius 54.551 0 0
lwrist 30.4483 0 0
lhand -24.6722 -2.96191 0
lfingers 7.12502 0 0
lthumb 1.8281 27.01 0
rclavicle 8.3307e-14 3.95332e-14 0
rhumerus 8.02281 19.5531 -87.9093
rradius 134.79 0 0
rwrist -44.4244 0 0
rhand -28.6657 -22.2394 0
rfingers 7.12502 0 0
rthumb -2.02883 -772.208 0
550
root 8.35906 14.0915 -3.40835 -180.425 46.7593 -182.831
lfemur -32.7342 -4.97109 -14.7745
ltibia 86.5587 0 0
lfoot -39.4295 -13.7935 0
ltoes -3.55034 0 0
rfemur -48.423 -6.503 -2.6139
rtibia 63.5532 0 0
rfoot -9.07929 -0.732041 0
rtoes -38.7982 0 0
lowerback 12.4357 0.180222 1.19636
upperback 6.56766 1.21979 6.33585
thorax -0.193004 0.855024 5.81726
lowerneck -1.7768 -15.4313 -5.67354
upperneck 8.0052 -20.952 8.62328
head 4.20051 -10.165 2.3534
lclavicle 7.51406e-14 5.72501e-14 0
lhumerus -46.1491 -10.3112 102.306
lradius 54.1941 0 0
lwrist 29.838 0 0
lhand -24.6854 -3.13149 0
lfingers 7.12502 0 0
lthumb 1.81535 26.8406 0
rclavicle 7.51406e-14 5.72501e-14 0
rhumerus 9.05727 19.4371 -87.1234
rradius 134.828 0 0
rwrist -44.2285 0 0
rhand -28.3467 -21.9159 0
rfingers 7.12502 0 0
rthumb -1.72073 -771.887 0
551
root 8.36478 14.1496 -3.39396 -180.346 46.8854 -182.818
lfemur -32.4164 -4.6525 -14.6766
ltibia 85.7294 0 0
lfoot -39.3734 -13.9486 0
ltoes -3.53193 0 0
rfemur -48.1874 -5.93638 -2.53175
rtibia 62.8674 0 0
rfoot -8.49534 -1.07734 0
rtoes -38.6956 0 0
lowerback 12.2441 0.032493 1.03416
upperback 6.42671 0.968571 6.17242
thorax -0.214323 0.715488 5.76641
lowerneck -1.75784 -15.3591 -5.6361
upperneck 7.93653 -20.8527 8.55853
head 4.15831 -10.1222 2.34421
lclavicle 6.69742e-14 7.49669e-14 0
lhumerus -46.1975 -10.007 102.054
lradius 53.8372 0 0
lwrist 29.2277 0 0
lhand -24.6987 -3.30106 0
lfingers 7.12502 0 0
lthumb 1.80261 26.6711 0
rclavicle 6.69742e-14 7.49669e-14 0
rhumerus 10.0917 19.3212 -86.3374
rradius 134.866 0 0
rwrist -44.0325 0 0
rhand -28.0277 -21.5925 0
rfingers 7.12502 0 0
rthumb -1.41263 -771.566 0
552
root 8.37033 14.2059 -3.38004 -180.269 47.0074 -182.806
lfemur -32.1088 -4.34408 -14.5819
ltibia 84.9266 0 0
lfoot -39.3191 -14.0987 0
ltoes -3.5141 0 0
rfemur -47.9593 -5.38785 -2.45222
rtibia 62.2035 0 0
rfoot -7.93002 -1.41162 0
rtoes -38.5963 0 0
lowerback 12.0586 -0.110522 0.877133
upperback 6.29026 0.725374 6.01421
thorax -0.234962 0.580405 5.71719
lowerneck -1.73949 -15.2891 -5.59986
upperneck 7.87005 -20.7566 8.49585
head 4.11746 -10.0807 2.3353
lclavicle 5.90685e-14 9.21184e-14 0
lhumerus -46.2444 -9.71243 101.809
lradius 53.4917 0 0
lwrist 28.6369 0 0
lhand -24.7115 -3.46523 0
lfingers 7.12502 0 0
lthumb 1.79027 26.507 0
rclavicle 5.90685e-14 9.21184e-14 0
rhumerus 11.0932 19.2089 -85.5764
rradius 134.902 0 0
rwrist -43.8427 0 0
rhand -27.7189 -21.2793 0
rfingers 7.12502 0 0
rthumb -1.11436 -771.255 0
553
root 8.37551 14.2585 -3.36703 -180.197 47.1214 -182.794
lfemur -31.8215 -4.05599 -14.4934
ltibia 84.1767 0 0
lfoot -39.2684 -14.2389 0
ltoes -3.49745 0 0
rfemur -47.7463 -4.87548 -2.37793
rtibia 61.5833 0 0
rfoot -7.40198 -1.72386 0
rtoes -38.5035 0 0
lowerback 11.8854 -0.244107 0.730463
upperback 6.16281 0.498212 5.86643
thorax -0.25424 0.454229 5.67121
lowerneck -1.72235 -15.2238 -5.566
upperneck 7.80796 -20.6669 8.4373
head 4.0793 -10.042 2.32698
lclavicle 5.1684e-14 1.08139e-13 0
lhumerus -46.2882 -9.43732 101.581
lradius 53.169 0 0
lwrist 28.0851 0 0
lhand -24.7234 -3.61857 0
lfingers 7.12502 0 0
lthumb 1.77874 26.3538 0
rclavicle 5.1684e-14 1.08139e-13 0
rhumerus 12.0286 19.1041 -84.8657
rradius 134.936 0 0
rwrist -43.6655 0 0
rhand -27.4304 -20.9868 0
rfingers 7.12502 0 0
rthumb -0.835759 -770.965 0
554
root 8.34087 14.3661 -3.37163 -179.904 47.9067 -182.667
lfemur -31.2461 -3.37312 -14.6131
ltibia 82.6921 0 0
lfoot -39.0902 -13.6674 0
ltoes -3.94577 0 0
rfemur -47.4091 -4.2961 -2.1536
rtibia 59.7946 0 0
rfoot -6.31502 -1.29253 0
rtoes -38.2665 0 0
lowerback 11.6742 -0.326812 0.571653
upperback 5.97441 0.337 5.74206
thorax -0.321032 0.360563 5.64591
lowerneck -1.78231 -15.1708 -5.47293
upperneck 7.87457 -20.5899 8.24952
head 4.07498 -10.0066 2.26298
lclavicle 5.45627e-14 9.81261e-14 0
lhumerus -46.2221 -9.20241 101.459
lradius 53.1028 0 0
lwrist 27.9976 0 0
lhand -24.9142 -3.84497 0
lfingers 7.12502 0 0
lthumb 1.59444 26.1284 0
rclavicle 5.45627e-14 9.81261e-14 0
rhumerus 12.9522 18.8461 -84.2156
rradius 134.919 0 0
rwrist -43.7428 0 0
rhand -27.4523 -21.0525 0
rfingers 7.12502 0 0
rthumb -0.856873 -771.031 0
555
root 8.30378 14.4813 -3.37656 -179.591 48.7475 -182.531
lfemur -30.6301 -2.64205 -14.7413
ltibia 81.1026 0 0
lfoot -38.8995 -13.0556 0
ltoes -4.42574 0 0
rfemur -47.048 -3.67582 -1.91343
rtibia 57.8795 0 0
rfoot -5.15134 -0.830761 0
rtoes -38.0128 0 0
lowerback 11.4481 -0.415354 0.401633
upperback 5.77271 0.164409 5.60891
thorax -0.392539 0.260285 5.61883
lowerneck -1.8465 -15.114 -5.3733
upperneck 7.94588 -20.5075 8.04848
head 4.07036 -9.96877 2.19446
lclavicle 5.76446e-14 8.74065e-14 0
lhumerus -46.1513 -8.95091 101.329
lradius 53.0319 0 0
lwrist 27.9039 0 0
lhand -25.1185 -4.08736 0
lfingers 7.12502 0 0
lthumb 1.39713 25.8871 0
rclavicle 5.76446e-14 8.74065e-14 0
rhumerus 13.9409 18.5698 -83.5197
rradius 134.902 0 0
rwrist -43.8256 0 0
rhand -27.4757 -21.1229 0
rfingers 7.12502 0 0
rthumb -0.879478 -771.101 0
556
root 8.26548 14.6003 -3.38165 -179.267 49.616 -182.391
lfemur -29.9937 -1.88688 -14.8736
ltibia 79.4608 0 0
lfoot -38.7024 -12.4237 0
ltoes -4.92152 0 0
rfemur -46.675 -3.0351 -1.66535
rtibia 55.9014 0 0
rfoot -3.9493 -0.353765 0
rtoes -37.7506 0 0
lowerback 11.2146 -0.506815 0.226008
upperback 5.56436 -0.0138725 5.47137
thorax -0.466404 0.156702 5.59086
lowerneck -1.91281 -15.0554 -5.27038
upperneck 8.01953 -20.4223 7.84082
head 4.06559 -9.92966 2.12368
lclavicle 6.08281e-14 7.63334e-14 0
lhumerus -46.0782 -8.69113 101.194
lradius 52.9587 0 0
lwrist 27.8071 0 0
lhand -25.3295 -4.33773 0
lfingers 7.12502 0 0
lthumb 1.19332 25.6379 0
rclavicle 6.08281e-14 7.63334e-14 0
rhumerus 14.9623 18.2845 -82.8008
rradius 134.883 0 0
rwrist -43.9111 0 0
rhand -27.4998 -21.1957 0
rfingers 7.12502 0 0
rthumb -0.902828 -771.173 0
557
root 8.22717 14.7194 -3.38674 -178.944 50.4845 -182.251
lfemur -29.3574 -1.13171 -15.006
ltibia 77.819 0 0
lfoot -38.5053 -11.7917 0
ltoes -5.41731 0 0
rfemur -46.3021 -2.39438 -1.41726
rtibia 53.9233 0 0
rfoot -2.74725 0.123231 0
rtoes -37.4885 0 0
lowerback 10.981 -0.598277 0.0503823
upperback 5.35602 -0.192154 5.33382
thorax -0.540268 0.0531185 5.56288
lowerneck -1.97911 -14.9968 -5.16746
upperneck 8.09319 -20.3371 7.63315
head 4.06082 -9.89056 2.0529
lclavicle 6.40116e-14 6.52603e-14 0
lhumerus -46.0051 -8.43135 101.059
lradius 52.8854 0 0
lwrist 27.7103 0 0
lhand -25.5405 -4.58811 0
lfingers 7.12502 0 0
lthumb 0.989509 25.3887 0
rclavicle 6.40116e-14 6.52603e-14 0
rhumerus 15.9837 17.9992 -82.0819
rradius 134.865 0 0
rwrist -43.9966 0 0
rhand -27.524 -21.2684 0
rfingers 7.12502 0 0
rthumb -0.926179 -771.246 0
